<!-- Generator: Adobe Illustrator 21.1.0, SVG Export Plug-In . SVG Version: 6.00 Build 0)  -->
<svg version="1.1" id="Ebene_1" xmlns="http://www.w3.org/2000/svg" xmlns:xlink="http://www.w3.org/1999/xlink" x="0px" y="0px"
	 viewBox="0 0 330.8 326.9" style="enable-background:new 0 0 330.8 326.9;" xml:space="preserve">
<polygon fill="#fff" points="154.7,2.1 131.3,62 143.5,2.1 107.7,2.1 84,61.9 96.5,2.1 62.9,2.1 31.4,160.7 72.6,160.7 93.9,108.2 83.8,160.7 
	123,160.7 186.6,2.1 "/>
<polygon  fill="#fff" points="182.1,2.1 151.3,160.7 185.7,160.7 216.5,2.1 "/>
<path  fill="#fff" d="M288.3,10.4C282.6,3.5,273.6,0,261.5,0c-24.9,0-42,15-47.1,41.1c-3.7,19,1.2,32.8,18.2,50.8c12.5,13.1,13.7,19.2,11.9,28.5
	c-1.8,9.5-5.9,10.3-9.5,10.3c-1.8,0-3.2-0.3-3.7-0.9c-0.2-0.2-1.2-1.8-0.2-6.9l3.2-16.7h-33.1l-2.5,12.9c-2.8,14.4-1,25.5,5.3,33.1
	c5.8,7,14.9,10.5,27.1,10.5c25.1,0,42.5-15.3,47.7-42c4-20.3-0.7-34-17.7-52.1c-12.5-13.2-14-19.2-12.4-27c1.7-8.9,5.5-9.7,8.9-9.7
	c1.6,0,2.9,0.3,3.3,0.8c0.1,0.2,1.2,1.7,0.1,7.3l-2.7,14.1h33.1l2.1-10.6C296.3,29.2,294.5,18,288.3,10.4z"/>
<polygon  fill="#fff" points="121.9,166.1 85.2,166.1 57.1,208.1 65.2,166.1 30.8,166.1 0,324.8 34.4,324.8 44.2,274.4 48,268.9 53.8,324.8 
	89.1,324.8 78.8,227.3 "/>
<path  fill="#fff" d="M181.2,175c-6-7.2-15.4-10.9-27.9-10.9c-25.3,0-42.7,15.2-47.8,41.6l-15.1,77.6c-2.7,14-0.9,25,5.5,32.7
	c6,7.2,15.4,10.9,27.9,10.9c25.3,0,42.7-15.2,47.8-41.6l15.1-77.6C189.4,193.7,187.6,182.7,181.2,175z M127.9,294.8
	c-1.8,0-3.1-0.3-3.6-0.9c-0.6-0.8-1-3-0.2-7.1l15.7-80.6c1.7-8.9,5.6-10.1,9.5-10.1c1.8,0,3.1,0.3,3.6,0.9c0.6,0.8,1,3,0.2,7.1
	l-15.7,80.6C135.6,293.6,131.8,294.8,127.9,294.8z"/>
<polygon  fill="#fff" points="293.4,166.1 270,226 282.1,166.1 246.4,166.1 222.7,225.9 235.1,166.1 201.5,166.1 170.1,324.8 211.3,324.8 
	232.6,272.2 222.4,324.8 261.7,324.8 325.3,166.1 "/>
<polygon  fill="#fff" points="322.9,157.3 282,157.3 289.9,116.4 330.8,116.4 "/>
</svg>
